<?xml version="1.0" encoding="UTF-8"?><svg xmlns="http://www.w3.org/2000/svg" xmlns:xlink="http://www.w3.org/1999/xlink" width="2500" height="2500" viewBox="0 0 50 50" version="1.1"><path d="M5 7c-2.758 0-5 2.242-5 5v26c0 2.758 2.242 5 5 5h40c2.758 0 5-2.242 5-5V12c0-2.758-2.242-5-5-5zm16.188 14.906c.519 0 .968.137 1.5.407v1.406c-.504-.492-.958-.688-1.532-.688-1.133 0-2.031.938-2.031 2.125 0 1.254.875 2.125 2.094 2.125.547 0 .984-.203 1.468-.687v1.437a3.395 3.395 0 0 1-1.53.344c-1.84 0-3.282-1.398-3.282-3.219 0-1.8 1.48-3.25 3.313-3.25zm-5.72.032c.68 0 1.294.234 1.813.687l-.625.844c-.316-.352-.605-.5-.968-.5-.52 0-.907.297-.907.687 0 .336.211.512.938.782 1.375.503 1.781.953 1.781 1.937 0 1.2-.871 2.031-2.125 2.031-.918 0-1.598-.37-2.156-1.187l.781-.75c.277.539.738.812 1.313.812.539 0 .937-.37.937-.875 0-.597-.531-.722-1.188-.968-1.128-.426-1.53-.868-1.53-1.72 0-1.015.84-1.78 1.937-1.78zm10.813 0a3.21 3.21 0 0 1 3.219 3.218c0 1.785-1.434 3.25-3.219 3.25a3.263 3.263 0 0 1-3.25-3.25c0-1.785 1.465-3.218 3.25-3.218zm-20.375.125h1.782c1.96 0 3.312 1.265 3.312 3.093 0 .965-.617 3.094-3.313 3.094h-1.78zm5.657 0h1.218v6.187h-1.219zm17.718 0h1.313l1.656 4.156 1.688-4.157h1.312l-2.688 6.344h-.656zm6.5 0h3.438v1.03H37v1.376h2.125v1.062H37v1.657h2.219v1.062H35.78zm4.219 0h1.813c1.394 0 2.187.652 2.187 1.812 0 .95-.496 1.594-1.406 1.781l1.937 2.594h-1.5l-1.656-2.5h-.156v2.5H40zm1.219.968v1.875h.343c.77 0 1.188-.347 1.188-.968 0-.602-.402-.907-1.156-.907zm-34.094.063v4.093h.313c2.175 0 2.312-1.566 2.312-2.03 0-.973-.574-2.063-2.219-2.063z" id="surface1"/><metadata><rdf:RDF xmlns:rdf="http://www.w3.org/1999/02/22-rdf-syntax-ns#" xmlns:rdfs="http://www.w3.org/2000/01/rdf-schema#" xmlns:dc="http://purl.org/dc/elements/1.1/"><rdf:Description about="https://iconscout.com/legal#licenses" dc:title="discover,filled" dc:description="discover,filled" dc:publisher="Iconscout" dc:date="2017-12-08" dc:format="image/svg+xml" dc:language="en"><dc:creator><rdf:Bag><rdf:li>Icons8</rdf:li></rdf:Bag></dc:creator></rdf:Description></rdf:RDF></metadata></svg>
