<?xml version="1.0" encoding="UTF-8"?><svg xmlns="http://www.w3.org/2000/svg" xmlns:xlink="http://www.w3.org/1999/xlink" width="2500" height="2500" viewBox="0 0 48 48" version="1.1"><g id="surface1"><path d="M45 35c0 2.21-1.79 4-4 4H7c-2.21 0-4-1.79-4-4V13c0-2.21 1.79-4 4-4h34c2.21 0 4 1.79 4 4z" fill="#3F51B5"/><path d="M40 24c0 5.523-4.477 10-10 10s-10-4.477-10-10 4.477-10 10-10 10 4.477 10 10z" fill="#FFC107"/><path d="M22.016 30a9.956 9.956 0 0 1-1.176-2h5.324a9.946 9.946 0 0 0 .637-2h-6.598A9.895 9.895 0 0 1 20 24h7c0-.688-.07-1.355-.2-2h-6.6c.144-.695.359-1.363.64-2h5.324a9.956 9.956 0 0 0-1.176-2h-2.972c.433-.578.93-1.121 1.48-1.594A9.964 9.964 0 0 0 17 14c-5.523 0-10 4.477-10 10s4.477 10 10 10c3.27 0 6.16-1.574 7.984-4z" fill="#FF3D00"/></g><metadata><rdf:RDF xmlns:rdf="http://www.w3.org/1999/02/22-rdf-syntax-ns#" xmlns:rdfs="http://www.w3.org/2000/01/rdf-schema#" xmlns:dc="http://purl.org/dc/elements/1.1/"><rdf:Description about="https://iconscout.com/legal#licenses" dc:title="mastercard" dc:description="mastercard" dc:publisher="Iconscout" dc:date="2017-12-13" dc:format="image/svg+xml" dc:language="en"><dc:creator><rdf:Bag><rdf:li>Icons8</rdf:li></rdf:Bag></dc:creator></rdf:Description></rdf:RDF></metadata></svg>
